<?xml version="1.0" standalone="no"?><!DOCTYPE svg PUBLIC "-//W3C//DTD SVG 1.1//EN" "http://www.w3.org/Graphics/SVG/1.1/DTD/svg11.dtd"><svg t="1564298635324" class="icon" viewBox="0 0 1024 1024" version="1.1" xmlns="http://www.w3.org/2000/svg" p-id="5771" xmlns:xlink="http://www.w3.org/1999/xlink" width="200" height="200"><defs><style type="text/css"></style></defs><path d="M874.78417588 423.09571457c-0.3862381-0.49438477-0.81650735-0.92388154-1.24600411-1.37500763L609.90904046 164.38725662C583.97392464 133.66047097 549.27197647 116.77182388 512.07724763 116.77182388h-0.10814667c-37.27970123 0.02085686-72.0465374 16.99602127-97.98242569 47.85181047L150.27257157 421.48432922a25.72963715 25.72963715 0 0 0-1.29003525 1.37500763C112.24047852 467.05887986 118.55778884 498.90343858 125.58423233 513.96595192c7.04730034 15.06328583 27.4607563 40.33175468 84.91830826 40.33175468h29.71715927v335.2253151c0 9.92631912 8.01444053 17.96316147 17.9199028 17.96316148h505.72780609c9.90546226 0 17.9199028-8.03606987 17.9199028-17.96316148v-332.28063584c0-9.90623474-8.01444053-17.94230461-17.9199028-17.94230461-9.90623474 0-17.92144776 8.03606987-17.92144776 17.94153213v314.3391037H641.19587136c0.10737419-0.85899353 0.49438477-1.61138535 0.49438476-2.4920082V701.16397094c0-69.57615852-41.36378288-118.15873147-100.6042099-118.15873145h-58.51043702c-55.45915603 0-100.56095123 45.1666832-100.56095122 100.66832542v185.41514397c0 0.88062287 0.36538124 1.63301468 0.49438476 2.4920082H276.05950546V536.35617447c0-9.9270916-8.01521302-17.96393394-17.92067528-17.96393395H210.50254059c-27.07451821 0-46.69232368-7.34856606-52.45113373-19.66106415-5.6722927-12.16186523 1.00962639-31.62903786 17.89904595-52.1923542l263.6716175-256.81743621c0.4511261-0.4511261 0.88062287-0.90225219 1.26763345-1.39663696 19.10333633-22.97035217 44.35017586-35.64745903 71.12342834-35.66908838h0.06488799c26.6658783 0 51.87023164 12.59136201 70.92953682 35.47519685 0.3862381 0.45189858 0.81650735 0.92465401 1.24677658 1.35415076l263.56424332 257.29019166c16.91027641 20.56331635 23.63622666 39.98800278 17.9847908 52.06412315-5.73718072 12.24761009-25.3125 19.55291748-52.40787506 19.55291748-9.90546226 0-17.92067527 8.03684235-17.92067527 17.96393395 0 9.90546226 8.01521302 17.94153213 17.92144775 17.94153213 57.47840881 0 77.82697678-25.20435334 84.87427711-40.22438049 7.00481415-15.01925468 13.30126762-46.79969787-23.48559379-90.97761154zM417.85446358 869.08870888V683.67356491c0-35.71157455 29.02965546-64.76285934 64.72037315-64.76285934h58.51043702c38.7412262 0 64.76285934 33.04730415 64.76285933 82.25326537v167.92473794c0 0.88062287 0.3862381 1.63301468 0.51524163 2.4920082h-189.02492523c0.129776-0.85899353 0.51601409-1.61138535 0.5160141-2.4920082z" p-id="5772" fill="#7300BC"></path></svg>