<?xml version="1.0" standalone="no"?><!DOCTYPE svg PUBLIC "-//W3C//DTD SVG 1.1//EN" "http://www.w3.org/Graphics/SVG/1.1/DTD/svg11.dtd"><svg t="1564297291940" class="icon" viewBox="0 0 1024 1024" version="1.1" xmlns="http://www.w3.org/2000/svg" p-id="2639" xmlns:xlink="http://www.w3.org/1999/xlink" width="200" height="200"><defs><style type="text/css"></style></defs><path d="M512 112.75264c42.80832 0 81.56672 23.58272 101.21216 61.568a57.0112 57.0112 0 0 0 66.55488 28.60544 113.09568 113.09568 0 0 1 31.85664-4.61824c62.90944 0 114.0736 51.16416 114.0736 114.0736 0 10.66496-1.54112 21.2736-4.53632 31.59552-7.7056 26.14784 4.24448 54.0672 28.43136 66.64704a113.85344 113.85344 0 0 1 61.66016 101.38112c0 40.2944-21.59104 77.99296-56.35584 98.3552a57.0368 57.0368 0 0 0-25.51808 66.56c15.45216 48.39424-6.50752 100.96128-53.41696 127.76448a122.7776 122.7776 0 0 1-60.8256 16.25088c-11.2384 0-22.33344-1.56672-33.02912-4.61824a57.11872 57.11872 0 0 0-67.1232 30.11584c-18.90304 39.37792-59.35104 64.82432-102.97856 64.82432-44.2624 0-84.89984-25.95328-103.57248-66.07872-9.55392-20.61312-30.05952-32.98816-51.70176-32.98816-5.84704 0-11.78112 0.88064-17.59744 2.7904a121.0368 121.0368 0 0 1-37.44256 5.93408c-40.38144 0-77.59872-20.33664-97.21344-53.0432-15.85664-26.42944-18.93888-58.42944-8.44288-87.7824a57.07264 57.07264 0 0 0-25.49248-68.75648c-35.64544-20.30592-57.7792-58.34752-57.7792-99.32288 0-39.5264 20.0192-75.65824 53.5552-96.70656a57.0368 57.0368 0 0 0 23.66976-66.72896 111.63136 111.63136 0 0 1-5.93408-36.18816c0-62.90944 51.15904-114.0736 114.06848-114.0736 13.7728 0 27.264 2.39616 40.12544 7.15776 6.5024 2.39616 13.17376 3.56352 19.7632 3.56352 21.24288 0 41.49248-11.94496 51.27168-32.0512 19.3024-39.61856 58.65984-64.2304 102.71744-64.2304m0-57.0368c-67.73248 0-126.18752 39.21408-153.99424 96.24576a173.00992 173.00992 0 0 0-59.88864-10.69568c-94.53568 0-171.10528 76.57472-171.10528 171.10528 0 19.10272 3.13856 37.49888 8.98048 54.60992C87.79776 397.21984 55.71584 450.83136 55.71584 512c0 63.73376 34.7904 119.36768 86.5536 148.864-15.68256 43.91424-12.40576 93.53728 13.2608 136.31488 31.13984 51.92704 87.6032 80.73216 146.1248 80.73216a178.0736 178.0736 0 0 0 55.0656-8.7296c27.23328 58.60352 86.54848 99.0976 155.27936 99.0976 68.01408 0 126.76096-39.63392 154.42432-97.1008a176.896 176.896 0 0 0 48.73728 6.81472 179.60448 179.60448 0 0 0 89.14432-23.78752c71.296-40.7808 102.52288-122.33728 79.42144-194.63168 50.64704-29.65504 84.5568-84.70016 84.5568-147.57888 0-66.01728-37.46816-123.48416-92.39552-152.00256a169.43616 169.43616 0 0 0 6.84544-47.62112c0-94.53568-76.60032-171.10528-171.1104-171.10528-16.53248 0-32.50688 2.42688-47.75936 6.84544-28.38528-54.89152-85.87264-92.39552-151.86432-92.39552z" p-id="2640" fill="#7300BC"></path><path d="M376.54016 369.41312c18.9952 0 35.64544 23.32672 35.64544 49.90464s-16.65024 49.90464-35.64544 49.90464c-18.99008 0-35.64544-23.32672-35.64544-49.90464s16.65024-49.90464 35.64544-49.90464m0-57.0368c-51.18976 0-92.68224 47.90784-92.68224 106.94144s41.49248 106.94144 92.68224 106.94144c51.18976 0 92.68224-47.91296 92.68224-106.94144s-41.49248-106.94144-92.68224-106.94144zM647.45984 569.0368c18.9952 0 35.64544 23.30112 35.64544 49.90464s-16.65024 49.90976-35.64544 49.90976-35.65056-23.30624-35.65056-49.90976 16.65536-49.90464 35.65056-49.90464m0-57.0368c-51.18976 0-92.68224 47.90784-92.68224 106.94144 0 59.0336 41.49248 106.94144 92.68224 106.94144s92.68224-47.90272 92.68224-106.94144c0-59.0336-41.49248-106.94144-92.68224-106.94144zM611.80928 312.37632h57.04192l-256.66048 413.50144h-57.0368l256.65536-413.50144z" p-id="2641" fill="#7300BC"></path></svg>