<?xml version="1.0" standalone="no"?><!DOCTYPE svg PUBLIC "-//W3C//DTD SVG 1.1//EN" "http://www.w3.org/Graphics/SVG/1.1/DTD/svg11.dtd"><svg t="1564311576310" class="icon" viewBox="0 0 1024 1024" version="1.1" xmlns="http://www.w3.org/2000/svg" p-id="7348" xmlns:xlink="http://www.w3.org/1999/xlink" width="200" height="200"><defs><style type="text/css"></style></defs><path d="M528 928c-56.32 0-336-429.44-336-592a336 336 0 0 1 672 0c0 162.56-279.68 592-336 592z m0-864a272.32 272.32 0 0 0-272 272c0 131.52 206.08 432 272 514.24C593.92 768 800 467.52 800 336A272.32 272.32 0 0 0 528 64z" fill="#7300BC" p-id="7349"></path><path d="M528 480a144 144 0 1 1 144-144 144 144 0 0 1-144 144z m0-224a80 80 0 1 0 80 80 80 80 0 0 0-80-80z m-16 768C256 1024 0 958.08 0 832c0-71.04 83.2-128 234.24-163.52l14.08 62.4C121.6 760 64 803.52 64 832c0 52.16 174.4 128 448 128s448-75.84 448-128c0-28.48-58.56-72.64-186.88-101.44l14.08-64C939.84 704 1024 760.64 1024 832c0 126.08-256 192-512 192z" fill="#7300BC" p-id="7350"></path></svg>