<?xml version="1.0" standalone="no"?><!DOCTYPE svg PUBLIC "-//W3C//DTD SVG 1.1//EN" "http://www.w3.org/Graphics/SVG/1.1/DTD/svg11.dtd"><svg t="1561983266128" class="icon" viewBox="0 0 1024 1024" version="1.1" xmlns="http://www.w3.org/2000/svg" p-id="2252" xmlns:xlink="http://www.w3.org/1999/xlink" width="200" height="200"><defs><style type="text/css"></style></defs><path d="M945.993 216.248c-0.396-0.107-0.794-0.175-1.19-0.257a17.615 17.615 0 0 0-0.69-0.149c-0.104-0.018-0.206-0.031-0.309-0.047a20.011 20.011 0 0 0-3.45-0.318h-714.28L189.286 78.868c-2.754-10.223-12.952-16.428-23.186-14.397H39.013c-11.046 0-20 8.955-20 20s8.954 20 20 20h115.743l180.229 669.247c-36.819 13.428-63.108 48.75-63.108 90.216 0 53.021 42.98 96 96 96 53.019 0 96-42.979 96-96 0-20.884-6.672-40.206-17.996-55.963h255.152c-11.323 15.756-17.995 35.079-17.995 55.963 0 53.021 42.979 96 96 96 53.02 0 96-42.979 96-96 0-49.541-37.526-90.312-85.703-95.448v-0.515h-7.668c-0.874-0.022-1.75-0.036-2.629-0.036s-1.755 0.014-2.629 0.036H374.86l-23.831-88.492H827c9.865 0 18.043-7.15 19.682-16.547l3.171-14.666c0.031-0.108 0.074-0.21 0.104-0.318L959.574 242.29c0.142-0.526 0.251-1.052 0.346-1.578l0.184 0.049c2.873-10.666-3.444-21.641-14.111-24.513zM777.569 807.97h2.936c30.247 0.78 54.532 25.526 54.532 55.963 0 30.929-25.072 56-56 56s-56-25.071-56-56c0-30.437 24.285-55.183 54.532-55.963z m-410.434-0.018c0.122 0.002 0.241 0.019 0.364 0.019h1.845c30.247 0.779 54.532 25.525 54.532 55.962 0 30.929-25.072 56-56 56s-56-25.071-56-56c0-30.68 24.674-55.583 55.259-55.981z m444.206-170.439a20.639 20.639 0 0 0-0.426 1.964H340.257l-103.41-384h677.73L811.341 637.513z" fill="#CACACA" p-id="2253"></path></svg>