<?xml version="1.0" standalone="no"?><!DOCTYPE svg PUBLIC "-//W3C//DTD SVG 1.1//EN" "http://www.w3.org/Graphics/SVG/1.1/DTD/svg11.dtd"><svg t="1564311609177" class="icon" viewBox="0 0 1024 1024" version="1.1" xmlns="http://www.w3.org/2000/svg" p-id="8192" xmlns:xlink="http://www.w3.org/1999/xlink" width="200" height="200"><defs><style type="text/css"></style></defs><path d="M512 1024C229.2224 1024 0 794.7776 0 512 0 229.2224 229.2224 0 512 0 794.7776 0 1024 229.2224 1024 512 1024 794.7776 794.7776 1024 512 1024ZM512 102.4C286.1568 102.4 102.4 286.1568 102.4 512 102.4 737.8432 286.1568 921.6 512 921.6 737.8432 921.6 921.6 737.8432 921.6 512 921.6 286.1568 737.8432 102.4 512 102.4ZM707.584 409.6C602.624 666.5728 512 870.4 512 870.4 512 870.4 421.3248 666.5728 316.416 409.6L204.8 409.6 204.8 307.2 460.8 307.2 460.8 409.6 426.8544 409.6C455.4752 479.3856 484.1472 548.096 512 613.5296 539.8528 548.096 568.5248 479.3856 597.1456 409.6L563.2 409.6 563.2 307.2 819.2 307.2 819.2 409.6 707.584 409.6Z" p-id="8193" fill="#7300BC"></path></svg>