<?xml version="1.0" standalone="no"?><!DOCTYPE svg PUBLIC "-//W3C//DTD SVG 1.1//EN" "http://www.w3.org/Graphics/SVG/1.1/DTD/svg11.dtd"><svg t="1564311519145" class="icon" viewBox="0 0 1045 1024" version="1.1" xmlns="http://www.w3.org/2000/svg" p-id="6947" xmlns:xlink="http://www.w3.org/1999/xlink" width="204.1015625" height="200"><defs><style type="text/css"></style></defs><path d="M1032.568392 201.781765 501.752667 753.825487 308.770872 753.825487 308.770872 560.843692 841.516415 10.729788C856.607591-4.361389 881.039086-4.361389 896.130263 10.729788L1032.568392 147.167917C1047.659568 162.259093 1047.659568 186.690588 1032.568392 201.781765ZM868.804041 92.592665 385.96359 599.440051 385.96359 676.632769 463.156308 676.632769 950.705514 174.494139 868.804041 92.592665ZM540.349026 97.648788 77.192718 97.648788 77.192718 946.768686 926.312615 946.768686 926.312615 483.612378C926.312615 455.630018 934.495044 449.840564 962.477404 449.840564 990.49836 449.840564 1003.505333 455.630018 1003.505333 483.612378L1003.505333 946.768686C1003.505333 984.052768 963.596698 1023.961404 926.312615 1023.961404L77.192718 1023.961404C39.908635 1023.961404 0 984.052768 0 946.768686L0 97.648788C0 60.326109 39.908635 20.45607 77.192718 20.45607L540.349026 20.45607C568.331386 20.45607 574.12084 33.50164 574.12084 61.484 574.12084 89.427764 568.331386 97.648788 540.349026 97.648788Z" p-id="6948" fill="#7300BC"></path></svg>