<?xml version="1.0" standalone="no"?><!DOCTYPE svg PUBLIC "-//W3C//DTD SVG 1.1//EN" "http://www.w3.org/Graphics/SVG/1.1/DTD/svg11.dtd"><svg t="1564297260542" class="icon" viewBox="0 0 1024 1024" version="1.1" xmlns="http://www.w3.org/2000/svg" p-id="2196" xmlns:xlink="http://www.w3.org/1999/xlink" width="200" height="200"><defs><style type="text/css"></style></defs><path d="M981.333333 313.6L774.4 81.066667c-2.133333-2.133333-4.266667-4.266667-6.4-4.266667-2.133333-2.133333-4.266667-2.133333-6.4-2.133333H262.4c-2.133333 0-4.266667 2.133333-6.4 2.133333-2.133333 2.133333-4.266667 2.133333-6.4 4.266667L42.666667 313.6c-8.533333 8.533333-8.533333 23.466667-2.133334 34.133333l454.4 593.066667c2.133333 2.133333 2.133333 4.266667 4.266667 4.266667h2.133333c2.133333 2.133333 4.266667 2.133333 4.266667 2.133333h2.133333c2.133333 0 4.266667 2.133333 8.533334 2.133333 2.133333 0 4.266667 0 8.533333-2.133333h2.133333c2.133333 0 4.266667-2.133333 4.266667-2.133333h2.133333c2.133333-2.133333 4.266667-2.133333 4.266667-4.266667L981.333333 347.733333c8.533333-10.666667 8.533333-23.466667 0-34.133333zM258.133333 151.466667l46.933334 153.6H121.6l136.533333-153.6z m409.6 153.6h-85.333333l117.333333-117.333334-32 117.333334zM324.266667 185.6l125.866666 119.466667h-91.733333l-34.133333-119.466667z m194.133333 172.8h134.4l-134.4 471.466667-140.8-471.466667h140.8z m-2.133333-64l-181.333334-170.666667h352l-170.666666 170.666667z m-196.266667 64l130.133333 435.2L117.333333 358.4H320z m388.266667 0h198.4L584.533333 791.466667l123.733334-433.066667z m14.933333-53.333333l42.666667-151.466667 134.4 151.466667h-177.066667z" fill="#7300BC" p-id="2197"></path></svg>