<?xml version="1.0" standalone="no"?><!DOCTYPE svg PUBLIC "-//W3C//DTD SVG 1.1//EN" "http://www.w3.org/Graphics/SVG/1.1/DTD/svg11.dtd"><svg t="1564311127578" class="icon" viewBox="0 0 1024 1024" version="1.1" xmlns="http://www.w3.org/2000/svg" p-id="3788" xmlns:xlink="http://www.w3.org/1999/xlink" width="200" height="200"><defs><style type="text/css"></style></defs><path d="M794.336172 229.354885c20.912034 0 37.925791 17.013757 37.925791 37.927007v1.835413l0.150823 1.829332 48.473639 590.843706c-0.783304 20.226034-17.483253 36.441891-37.897816 36.441892H181.008958c-20.414562 0-37.114511-16.215857-37.897815-36.441892L191.584782 270.94542l0.150822-1.829331v-1.835413c0-20.91325 17.013757-37.927007 37.925791-37.927007H794.336172m0-44.819842H229.661395c-45.70045 0-82.746848 37.047614-82.746848 82.746849l-48.652437 593.023335c0 45.70045 37.047614 82.746848 82.746848 82.746848H842.988609c45.70045 0 82.746848-37.047614 82.746848-82.746848l-48.652437-593.023335c0.001216-45.699234-37.046398-82.746848-82.746848-82.746849z" p-id="3789" fill="#7300BC"></path><path d="M379.118032 349.028933m-41.374032 0a41.374032 41.374032 0 1 0 82.748064 0 41.374032 41.374032 0 1 0-82.748064 0Z" p-id="3790" fill="#7300BC"></path><path d="M644.881968 349.028933m-41.374032 0a41.374032 41.374032 0 1 0 82.748064 0 41.374032 41.374032 0 1 0-82.748064 0Z" p-id="3791" fill="#7300BC"></path><path d="M401.668436 314.546518V191.43031c0-60.836223 49.494124-110.330347 110.330348-110.330347s110.330347 49.494124 110.330347 110.330347v123.116208h44.821057V191.43031c0-85.687888-69.463517-155.151405-155.151404-155.151404s-155.151405 69.463517-155.151405 155.151404v123.116208h44.821057z" p-id="3792" fill="#7300BC"></path></svg>