<?xml version="1.0" standalone="no"?><!DOCTYPE svg PUBLIC "-//W3C//DTD SVG 1.1//EN" "http://www.w3.org/Graphics/SVG/1.1/DTD/svg11.dtd"><svg t="1564311209825" class="icon" viewBox="0 0 1024 1024" version="1.1" xmlns="http://www.w3.org/2000/svg" p-id="4718" xmlns:xlink="http://www.w3.org/1999/xlink" width="200" height="200"><defs><style type="text/css"></style></defs><path d="M904.3 408.1c30.1-16.3 46.7-44.6 46.7-79.5v-92c0-64-52.1-116-116-116H190.7c-64 0-116 52.1-116 116v552.3c0 64 52.1 116 116 116H743c114.5 0 207.7-93 208.1-207.4V674.4c0-13.3-10.7-24-24-24s-24 10.7-24 24v22.4c0 88.3-71.8 160.1-160.1 160.1H190.7c-37.5 0-68-30.5-68-68V236.6c0-37.5 30.5-68 68-68H835c37.5 0 68 30.5 68 68v92c0 16.9-6.4 28.5-20.2 36.5-10.1 5.9-21.7 8.1-26 8.5h-275c-37.3 0-71.8 12.3-97.2 34.7-27 23.7-41.8 57.3-41.8 94.4 0 37.1 14.9 70.6 41.8 94.4 25.4 22.4 59.9 34.7 97.2 34.7H812c76.7 0 139.1-62.4 139.1-139.1 0-13.3-10.7-24-24-24s-24 10.7-24 24c0 50.2-40.8 91.1-91.1 91.1H581.9c-25.6 0-48.9-8.1-65.5-22.7-16.7-14.7-25.6-34.9-25.6-58.3 0-23.5 8.8-43.6 25.6-58.3 16.6-14.6 39.9-22.7 65.5-22.7h275.9c4.5-0.2 25.7-2.5 46.5-13.7z m-46.5-34.5h-0.5 0.5z" fill="#7300BC" p-id="4719"></path><path d="M565.2 483.6v42c0 13.2 10.8 24 24 24s24-10.8 24-24v-42c0-13.2-10.8-24-24-24s-24 10.8-24 24z" fill="#7300BC" p-id="4720"></path></svg>