<?xml version="1.0" standalone="no"?><!DOCTYPE svg PUBLIC "-//W3C//DTD SVG 1.1//EN" "http://www.w3.org/Graphics/SVG/1.1/DTD/svg11.dtd"><svg t="1564311641860" class="icon" viewBox="0 0 1024 1024" version="1.1" xmlns="http://www.w3.org/2000/svg" p-id="8780" xmlns:xlink="http://www.w3.org/1999/xlink" width="200" height="200"><defs><style type="text/css"></style></defs><path d="M501.32992 558.30016c-16.65536 0-27.76064-11.10528-27.76064-27.76064 0-11.10528 0-44.416 33.31072-66.62656 6.08256-4.47488 9.27744-6.39488 16.65536-11.10016 21.4272-13.7728 49.9712-27.76064 61.07648-66.62656 5.55008-27.76064 0-49.96608-16.66048-72.17664-11.10016-16.65536-33.31072-27.76064-66.62144-27.76064-44.416 0-66.62144 16.65536-77.72672 33.31072-11.10528 22.20544-16.65536 44.416-11.10528 61.07136s-5.55008 27.76064-22.20544 33.31072c-16.65536 5.55008-29.48608-6.58944-33.31072-16.65536-11.10016-33.31072 0-77.72672 27.76064-111.04256S456.91392 230.7328 506.88 230.7328c49.9712 0 88.832 16.65536 116.58752 49.96608s33.31584 77.72672 22.21056 116.59264c-16.65536 66.62144-62.47936 90.14784-94.3872 105.48736-4.89472 2.49856-6.49728 3.46112-11.10528 5.55008-7.552 3.67104-11.10016 11.10528-11.10016 16.66048v5.55008c0.00512 16.65536-11.10016 27.76064-27.75552 27.76064z" p-id="8781" fill="#7300BC"></path><path d="M506.34752 918.72256c-13.01504 0-24.96-8.64256-34.02752-13.23008l-309.66272-160.98816c-27.76064-16.65536-44.416-38.86592-44.416-66.62656V175.21152c0-66.62656 49.96608-116.59264 116.59264-116.59264h544.09728c33.31072 0 61.07136 11.10528 83.28192 33.31072 22.20544 22.20544 33.31072 49.96608 33.31072 83.28192v502.66624c0 27.76064-16.65536 55.52128-38.86592 66.62656l-310.912 161.00864c-16.9984 7.65952-21.26336 13.2096-39.3984 13.2096zM234.83392 114.14016c-33.31072 0-61.07136 27.76064-61.07136 61.07136v494.44352c0 16.10752 6.29248 21.86752 18.98496 29.00992l303.0272 156.88192c8.704 5.0944 13.50656 4.61312 22.21056 0l310.912-161.00864c12.14464-5.41696 11.10528-13.81376 11.10528-21.97504V175.21152c0-16.65536-5.55008-33.31072-16.65536-44.416-11.10528-11.10016-27.76064-16.65536-44.416-16.65536H234.83392z" p-id="8782" fill="#7300BC"></path><path d="M506.88 669.3376c-16.65536 0-27.76064-11.10528-27.76064-27.76064 0-16.65536 11.10528-27.76064 27.76064-27.76064 16.65536 0 27.76064 11.10528 27.76064 27.76064 0 16.66048-11.10528 27.76064-27.76064 27.76064z" p-id="8783" fill="#7300BC"></path></svg>