<?xml version="1.0" standalone="no"?><!DOCTYPE svg PUBLIC "-//W3C//DTD SVG 1.1//EN" "http://www.w3.org/Graphics/SVG/1.1/DTD/svg11.dtd"><svg t="1564559308644" class="icon" viewBox="0 0 1024 1024" version="1.1" xmlns="http://www.w3.org/2000/svg" p-id="2338" xmlns:xlink="http://www.w3.org/1999/xlink" width="200" height="200"><defs><style type="text/css"></style></defs><path d="M172.757333 409.642667l42.24-42.24 31.68 31.68-42.24 42.24zM218.581333 454.122667l42.24-42.218667 31.68 31.68-42.24 42.24zM264.256 501.973333l42.24-42.261333 33.194667 33.173333-42.24 42.24z" fill="#FD6260" p-id="2339"></path><path d="M339.2 0L0 345.6V1024L1024 0H339.2z m-36.266667 179.2l14.933334-14.933333 19.2 19.2 57.6-57.6-19.2-19.2 14.933333-14.933334 19.2 19.2 53.333333-53.333333 14.933334 14.933333-53.333334 53.333334 14.933334 14.933333-14.933334 14.933333-14.933333-14.933333-57.6 57.6 10.666667 10.666667-14.933334 14.933333-12.8-10.666667-55.466666 55.466667-14.933334-14.933333L320 198.4l-17.066667-19.2z m-130.133333 128l44.8 6.4-6.4 23.466667c-12.8-4.266667-27.733333-6.4-42.666667-8.533334l4.266667-21.333333zM256 625.066667c-6.4 6.4-12.8 14.933333-21.333333 21.333333-6.4-4.266667-12.8-10.666667-19.2-14.933333 6.4-6.4 12.8-10.666667 17.066666-14.933334 4.266667-4.266667 4.266667-10.666667 0-14.933333l-55.466666-55.466667c-6.4 10.666667-12.8 21.333333-17.066667 32l-19.2-14.933333c6.4-10.666667 12.8-21.333333 19.2-34.133333l-49.066667-49.066667L85.333333 503.466667l-14.933333-14.933334 25.6-25.6-38.4-38.4 14.933333-14.933333L110.933333 448l23.466667-23.466667 14.933333 14.933334-23.466666 23.466666L170.666667 507.733333c6.4-10.666667 12.8-21.333333 17.066666-29.866666 6.4 6.4 12.8 10.666667 17.066667 14.933333l-19.2 32 61.866667 61.866667c17.066667 14.933333 19.2 27.733333 8.533333 38.4z m70.4-61.866667l-14.933333 14.933333-132.266667-132.266666c2.133333 8.533333 2.133333 19.2 4.266667 27.733333H160c-4.266667-38.4-12.8-78.933333-29.866667-123.733333L149.333333 341.333333c6.4 17.066667 10.666667 32 14.933334 49.066667l102.4-102.4 14.933333 14.933333-51.2 51.2 32 32 49.066667-49.066666 14.933333 14.933333-49.066667 44.8 32 32 49.066667-49.066667 14.933333 14.933334-49.066666 49.066666 32 32 55.466666-55.466666 12.8 12.8-113.066666 113.066666 14.933333 17.066667z m155.733333-162.133333L401.066667 320c2.133333 21.333333 2.133333 40.533333 0 59.733333-8.533333-2.133333-17.066667-2.133333-23.466667-4.266666 4.266667-38.4 0-76.8-8.533333-117.333334L320 307.2l-14.933333-14.933333L362.666667 234.666667c-2.133333-4.266667-2.133333-8.533333-4.266667-14.933334l17.066667-17.066666c2.133333 4.266667 4.266667 8.533333 4.266666 14.933333l121.6-121.6 14.933334 14.933333-128 128c4.266667 14.933333 6.4 27.733333 10.666666 42.666667l102.4 102.4-19.2 17.066667z m85.333334-85.333334l-36.266667 36.266667c-6.4-4.266667-12.8-8.533333-19.2-14.933333 12.8-10.666667 25.6-23.466667 36.266667-32 6.4-6.4 6.4-14.933333 0-21.333334L522.666667 256l-61.866667 61.866667-14.933333-14.933334 61.866666-61.866666-10.666666-10.666667 10.666666-49.066667-81.066666 81.066667-14.933334-14.933333 106.666667-106.666667 14.933333 14.933333-14.933333 66.133334 4.266667 4.266666L576 172.8l14.933333 14.933333-53.333333 53.333334 27.733333 27.733333c17.066667 14.933333 17.066667 32 2.133334 46.933333z" fill="#FD6260" p-id="2340"></path></svg>