<?xml version="1.0" standalone="no"?><!DOCTYPE svg PUBLIC "-//W3C//DTD SVG 1.1//EN" "http://www.w3.org/Graphics/SVG/1.1/DTD/svg11.dtd"><svg t="1564311416940" class="icon" viewBox="0 0 1024 1024" version="1.1" xmlns="http://www.w3.org/2000/svg" p-id="6176" xmlns:xlink="http://www.w3.org/1999/xlink" width="200" height="200"><defs><style type="text/css"></style></defs><path d="M575.770907 497.41277c14.82259 0 26.815739-11.995195 26.815739-26.793226 0-14.821567-11.993149-26.816762-26.815739-26.816762-14.797008 0-26.793226 11.995195-26.793226 26.816762C548.978704 485.417575 560.9739 497.41277 575.770907 497.41277zM701.300902 386.247948c-3.980661-34.104749-32.888038-59.8409-67.25066-59.8409l-2.901073 0c-9.267061-50.597375-53.387931-89.102341-106.578364-89.102341-53.289694 0-97.43717 38.652322-106.654089 89.348957-33.060977 1.413186-60.541865 26.459628-64.425312 59.373249l-34.558074 271.253914c-2.26253 19.198248 3.809769 38.518269 16.664541 52.970422 12.831236 14.405081 31.317263 22.714328 50.634214 22.714328l282.353716 0c19.34458 0 37.779442-8.309246 50.610678-22.714328 12.880355-14.452153 18.926048-33.772174 16.665565-53.16485L701.300902 386.247948zM524.571828 282.470373c28.166503 0 51.713802 18.534122 60.071144 43.937698L464.544687 326.408071C472.803791 301.004495 496.450351 282.470373 524.571828 282.470373zM685.472402 680.216189c-4.350075 4.89038-10.349719 7.570419-16.886599 7.570419L386.23311 687.786609c-6.562463 0-12.56006-2.680039-16.912182-7.570419-4.325515-4.866844-6.28924-11.136641-5.553483-17.402345l34.583656-271.281543c1.351787-11.367909 10.988262-19.934005 22.441105-19.934005L634.051265 371.598296c11.453866 0 21.090341 8.566096 22.467711 20.143783l34.509978 270.824125C691.765735 669.079548 689.799964 675.349345 685.472402 680.216189zM475.262796 497.41277c14.795984 0 26.79118-11.995195 26.79118-26.793226 0-14.821567-11.994172-26.816762-26.79118-26.816762-14.798031 0-26.795273 11.995195-26.795273 26.816762C448.468546 485.417575 460.464765 497.41277 475.262796 497.41277zM584.252069 521.377578c-12.144598 0-21.950941 9.734712-22.294772 21.827121l-0.367367 0c0 39.795355-14.305821 52.011584-34.513048 52.011584-9.463536 0-37.411051-4.939499-37.411051-52.011584l-0.24764 0c-0.366344-12.092409-10.150174-21.827121-22.317285-21.827121-12.192693 0-22.024619 9.734712-22.318308 21.827121l-0.296759 0c0 57.787124 35.151591 95.346555 83.228563 95.346555 34.462906 0 79.049381-19.098987 79.049381-95.346555l-0.194428 0C606.225523 531.11229 596.441693 521.377578 584.252069 521.377578zM527.519973 64.874543c-237.322104 0-430.399517 193.089693-430.399517 430.399517 0 237.344616 193.078437 430.424076 430.399517 430.424076 237.344616 0 430.423053-193.07946 430.423053-430.424076C957.943027 257.964236 764.865613 64.874543 527.519973 64.874543zM527.519973 870.318852c-206.792786 0-375.020232-168.227446-375.020232-375.045815 0-206.780507 168.227446-375.020232 375.020232-375.020232s375.043768 168.239725 375.043768 375.020232C902.563742 702.091406 734.31276 870.318852 527.519973 870.318852z" p-id="6177" fill="#7300BC"></path></svg>