<?xml version="1.0" standalone="no"?><!DOCTYPE svg PUBLIC "-//W3C//DTD SVG 1.1//EN" "http://www.w3.org/Graphics/SVG/1.1/DTD/svg11.dtd"><svg t="1564311300844" class="icon" viewBox="0 0 1024 1024" version="1.1" xmlns="http://www.w3.org/2000/svg" p-id="4905" xmlns:xlink="http://www.w3.org/1999/xlink" width="200" height="200"><defs><style type="text/css"></style></defs><path d="M877.8 536.58a243.07 243.07 0 0 0-114.15-87.29c-46.36-17.07-98.7-18.66-146.16-5.17-45.74 13-87.78 40.06-118 76.82a241.82 241.82 0 0 0-54.71 135.29 238.24 238.24 0 0 0 33.69 140.84C503 837.51 539.91 871 583.12 890.41a242.89 242.89 0 0 0 148.29 16.75c46.78-9.47 90.64-34.07 123.56-68.58s55.71-79.08 63-126.31a257.66 257.66 0 0 0 3.22-38.62C921 625 906.14 576.28 877.8 536.58z m6 108.7z m-14-50.88c-0.17-0.39-0.35-0.79-0.46-1a5.32 5.32 0 0 1 0.38 1zM603.4 486.59l-1.14 0.5a5.17 5.17 0 0 1 1.14-0.5z m281.49 204.49q-0.32 4-0.77 8l-0.15 1.22c-0.26 1.43-0.41 2.9-0.64 4.34a219.54 219.54 0 0 1-7.75 32.16c-1.71 5.28-3.64 10.47-5.71 15.61 0 0.12-0.09 0.23-0.13 0.33l-0.14 0.32c-0.57 1.26-1.12 2.52-1.69 3.77q-1.73 3.75-3.59 7.42a222 222 0 0 1-16.93 28.07c-1.17 1.64-2.79 5.14-4.5 6.11 0 0 2.24-2.83 1-1.3-0.49 0.6-1 1.22-1.45 1.83-0.85 1.06-1.71 2.11-2.58 3.16q-5.21 6.27-10.88 12.15t-11.74 11.31q-3 2.73-6.17 5.33c-0.9 0.75-1.8 1.49-2.71 2.22-0.6 0.49-1.22 1-1.82 1.45-1.93 1.54 0.47 0 0.83-0.64-1 1.71-4.46 3.33-6.11 4.5q-3.57 2.54-7.24 4.93-6.87 4.47-14.06 8.44-7 3.83-14.18 7.15l-3.78 1.66-0.32 0.15-0.33 0.13c-2.57 1-5.14 2-7.74 3a218.94 218.94 0 0 1-32.26 9.1q-3.87 0.76-7.77 1.4c-1.4 0.23-2.81 0.43-4.22 0.65-2 0.31 1.75-0.25 1.71-0.23a10.65 10.65 0 0 1-3 0.37q-8.29 0.95-16.64 1.28a224.26 224.26 0 0 1-34.76-1.35l-1.62-0.21-3.33-0.51q-4.18-0.68-8.36-1.52-8.25-1.68-16.37-4t-15.86-5.16c-2.41-0.89-4.8-1.84-7.19-2.79l-0.31-0.13-0.33-0.15-3.77-1.69A220.89 220.89 0 0 1 570.76 843q-3.18-2.09-6.28-4.27l-3.32-2.39c-0.76-0.56-4.52-3.27-2.39-1.77s-1.42-1.13-1.87-1.49c-0.9-0.73-1.81-1.47-2.7-2.22q-3.36-2.79-6.61-5.71a222.92 222.92 0 0 1-22.19-23.08c-0.87-1.05-1.73-2.1-2.58-3.16l-1.08-1.37c-0.64-0.79-0.94-0.82-0.81-0.51-1.29-1.59-2.45-3.91-3.39-5.24q-4.72-6.69-8.94-13.72c-2.82-4.69-5.46-9.5-7.92-14.39-1.15-2.28-2.25-4.58-3.32-6.9-0.56-1.21-1.09-2.43-1.64-3.65 1.17 2.18-0.41-1-0.55-1.31a220.34 220.34 0 0 1-10-31.22q-2-8.24-3.31-16.62c-0.19-1.21-0.89-3-0.63-4.22 0 0 0.46 3.76 0.23 1.7-0.07-0.61-0.15-1.21-0.22-1.82q-0.54-4.59-0.89-9.2a224.79 224.79 0 0 1 0.05-34.23q0.33-4.31 0.84-8.58c0-0.19 0-0.38 0.07-0.58 0.27-1.44 0.41-2.92 0.65-4.37q1.35-8.36 3.36-16.6a227.72 227.72 0 0 1 10.26-31.58c0-0.08 0.07-0.15 0.11-0.24 0.56-1.26 1.11-2.52 1.69-3.77q1.84-4 3.85-8 3.6-7.06 7.7-13.85 4.23-7 9-13.69c0.79-1.11 1.59-2.21 2.4-3.31 0.4-0.55 3-4.22 1.42-1.92s0.71-0.89 1.12-1.41c1-1.21 2-2.42 3-3.61a221.77 221.77 0 0 1 22.68-23.4c1.88-1.68 3.8-3.33 5.74-4.94 1-0.87 2.1-1.73 3.16-2.58 0.45-0.37 0.91-0.73 1.37-1.09 1.92-1.54-0.48 0-0.84 0.64 1-1.75 5-3.69 6.59-4.84 2.23-1.57 4.48-3.1 6.77-4.59A220.32 220.32 0 0 1 600 488.14c1.26-0.58 2.53-1.1 3.78-1.69h0.07c2.75-1.11 5.51-2.19 8.3-3.19q7.86-2.85 15.91-5.09 7.83-2.17 15.81-3.77 4.17-0.83 8.36-1.5l3.1-0.47 1.86-0.22a224.34 224.34 0 0 1 34.81-1.29q8.64 0.36 17.23 1.39l1 0.14c1.1 0.17 2.21 0.33 3.31 0.51q4.2 0.68 8.36 1.52a219.73 219.73 0 0 1 32.24 9.14c2.55 0.94 5.06 1.94 7.58 3l0.25 0.11c1.43 0.65 2.88 1.28 4.3 1.94q7.47 3.47 14.67 7.47t14 8.51q3.16 2.1 6.26 4.29c1.11 0.79 2.22 1.59 3.31 2.4 0.61 0.44 4.09 2.95 1.93 1.42s1.32 1.06 1.86 1.49c1.06 0.85 2.11 1.72 3.16 2.59 2.08 1.74 4.14 3.53 6.16 5.34q6.06 5.46 11.71 11.35t10.84 12.18c0.87 1.05 1.73 2.1 2.58 3.17 0.36 0.45 0.71 0.92 1.08 1.37 1.26 1.53-1-1.33-1-1.3 1.88 1.11 3.9 5.26 5.17 7.07a221 221 0 0 1 16.53 27.63c1.23 2.46 2.42 4.93 3.56 7.44 0.49 1.07 1 2.15 1.45 3.23l0.32 0.7c0.06 0.17 0.12 0.34 0.18 0.49q3.12 7.71 5.66 15.64a219.6 219.6 0 0 1 7.76 32.8c0.17 1 0.27 2.12 0.46 3.16 0 0.4 0.09 0.79 0.14 1.19q0.45 4 0.77 8c0.45 5.8 0.66 11.61 0.67 17.42s-0.16 11.56-0.61 17.36z" p-id="4906" fill="#7300BC"></path><path d="M835 655.85H700.44V526.41c0-9.31-8.19-18.23-17.81-17.8s-17.8 7.82-17.8 17.8v147.24a18.07 18.07 0 0 0 17.8 17.81H835c9.31 0 18.24-8.19 17.8-17.81s-7.8-17.8-17.8-17.8z" p-id="4907" fill="#7300BC"></path><path d="M392.68 800.81H150.5V394.6c0-12.25 0.24-24.54 0.27-36.82l49.15-0.45 79.4-0.74 96.43-0.9 105.62-1 107.09-1 99.42-0.93 84.4-0.78 60.43-0.56h6.17v58.68c0 12.45 11 24.38 23.81 23.81s23.81-10.47 23.81-23.81v-77.54c0-3.78 0.26-7.9-0.85-11.54-1-3.43-2.53-6.79-3.78-10.16q-25.47-68.64-51-137.28l-16.29-43.9c-3.7-10-11.83-17.48-23-17.48H282c-23.55 0-47.15-0.44-70.7 0h-1c-7.54 0-17.42 4.35-20.56 11.79l-20.34 48.29-38.73 91.77-24.18 57.28-0.28 0.69a21 21 0 0 0-3.33 12.18V784.69c0 12.74-0.12 25.49 0 38.24v1.69a24.16 24.16 0 0 0 23.81 23.81h266c12.46 0 24.39-10.95 23.81-23.81s-10.5-23.81-23.82-23.81zM175.42 279.47Q198 226 220.55 172.53l5.37-12.71H720c18.41 0 36.88 0.39 55.31 0.25l34.2 92.16 19.17 51.64-39.2 0.36-79.39 0.74-96.44 0.89-105.62 1-107.09 1-99.42 0.92-84.4 0.79-54.58 0.5z" p-id="4908" fill="#7300BC"></path></svg>