<?xml version="1.0" standalone="no"?><!DOCTYPE svg PUBLIC "-//W3C//DTD SVG 1.1//EN" "http://www.w3.org/Graphics/SVG/1.1/DTD/svg11.dtd"><svg t="1561769459666" class="icon" viewBox="0 0 1433 1024" version="1.1" xmlns="http://www.w3.org/2000/svg" p-id="2308" xmlns:xlink="http://www.w3.org/1999/xlink" width="279.8828125" height="200"><defs><style type="text/css"></style></defs><path d="M716.8 3.9936c-473.9072 0-716.8 509.952-716.8 509.952S183.6032 1024 716.8 1024c483.1232 0 716.6976-508.1088 716.6976-508.1088s-235.8272-512-716.8-512z m1.024 828.6208c-173.1584 0-298.3936-139.264-298.3936-318.7712S544.6656 194.9696 717.824 194.9696c173.056 0 298.496 139.3664 298.496 318.8736 0 179.2-125.2352 318.7712-298.496 318.7712z m0-509.952c-98.816 0-178.9952 88.9856-178.9952 191.1808s80.0768 191.1808 178.9952 191.1808S897.024 616.0384 897.024 513.8432c0-102.4-80.0768-191.488-179.0976-191.1808z" p-id="2309" fill="#C8C8C8"></path></svg>